<svg width="300" height="140" viewBox="0 0 300 140" fill="none" xmlns="http://www.w3.org/2000/svg">
  <!-- SLATE — pixel-block letterforms (light bg variant) -->
  <g transform="translate(12, 10)">
    <!-- S -->
    <rect x="0" y="0" width="48" height="10" fill="#808080"/>
    <rect x="0" y="0" width="10" height="30" fill="#808080"/>
    <rect x="0" y="20" width="48" height="10" fill="#808080"/>
    <rect x="38" y="20" width="10" height="30" fill="#808080"/>
    <rect x="0" y="40" width="48" height="10" fill="#808080"/>
    <!-- L -->
    <rect x="58" y="0" width="10" height="50" fill="#808080"/>
    <rect x="58" y="40" width="44" height="10" fill="#808080"/>
    <!-- A -->
    <rect x="112" y="0" width="48" height="10" fill="#808080"/>
    <rect x="112" y="0" width="10" height="50" fill="#808080"/>
    <rect x="150" y="0" width="10" height="50" fill="#808080"/>
    <rect x="112" y="20" width="48" height="10" fill="#808080"/>
    <!-- T -->
    <rect x="170" y="0" width="48" height="10" fill="#808080"/>
    <rect x="189" y="0" width="10" height="50" fill="#808080"/>
    <!-- E -->
    <rect x="228" y="0" width="48" height="10" fill="#808080"/>
    <rect x="228" y="0" width="10" height="50" fill="#808080"/>
    <rect x="228" y="20" width="38" height="10" fill="#808080"/>
    <rect x="228" y="40" width="48" height="10" fill="#808080"/>
  </g>
  <!-- Teal accent bar -->
  <rect x="120" y="66" width="60" height="3" rx="1.5" fill="#2ba8a1"/>
  <!-- OWNERS CLUB -->
  <text x="150" y="92" text-anchor="middle"
        font-family="'Chakra Petch', sans-serif" font-weight="600"
        font-size="22" letter-spacing="9" fill="#2ba8a1">OWNERS CLUB</text>
  <!-- Tagline -->
  <text x="150" y="118" text-anchor="middle"
        font-family="'DM Sans', sans-serif" font-weight="300"
        font-size="9" letter-spacing="3" fill="#999">Built Simple. Made Yours.</text>
</svg>
